<?xml version="1.0" encoding="UTF-8" standalone="no"?>
<!-- Created with Inkscape (http://www.inkscape.org/) -->

<svg
   width="1080"
   height="1080"
   viewBox="0 0 1080 1080"
   version="1.1"
   id="svg5"
   inkscape:version="1.1.2 (0a00cf5339, 2022-02-04)"
   sodipodi:docname="LogoBoletimIPJG.svg"
   xmlns:inkscape="http://www.inkscape.org/namespaces/inkscape"
   xmlns:sodipodi="http://sodipodi.sourceforge.net/DTD/sodipodi-0.dtd"
   xmlns="http://www.w3.org/2000/svg"
   xmlns:svg="http://www.w3.org/2000/svg">
  <sodipodi:namedview
     id="namedview7"
     pagecolor="#ffffff"
     bordercolor="#666666"
     borderopacity="1.0"
     inkscape:pageshadow="2"
     inkscape:pageopacity="0.0"
     inkscape:pagecheckerboard="0"
     inkscape:document-units="px"
     showgrid="false"
     inkscape:zoom="0.63148148"
     inkscape:cx="540"
     inkscape:cy="539.20821"
     inkscape:window-width="1920"
     inkscape:window-height="1010"
     inkscape:window-x="0"
     inkscape:window-y="0"
     inkscape:window-maximized="1"
     inkscape:current-layer="layer1" />
  <defs
     id="defs2" />
  <g
     inkscape:label="Camada 1"
     inkscape:groupmode="layer"
     id="layer1">
    <g
       id="g48221"
       transform="matrix(1.496766,0,0,1.496766,-218.27369,-39.629499)">
      <path
         id="path35785"
         style="font-variation-settings:'wght' 700;display:inline;fill:#2c3c6c;fill-opacity:1;fill-rule:nonzero;stroke:#2c3c6c;stroke-width:1.13386;stroke-linecap:square;stroke-linejoin:miter;stroke-miterlimit:4;stroke-dasharray:none;stroke-opacity:1;paint-order:stroke fill markers"
         d="m 365.28743,520.8235 c -32.95417,-3.33002 -61.81989,-17.10178 -84.52474,-40.32663 -8.50873,-8.70364 -14.59316,-16.74918 -20.66336,-27.32347 -2.08446,-3.63113 -2.54116,-3.78107 -1.93171,-4.22672 0.73074,-0.53432 1.5195,-0.3923 1.5195,0.028 0,0.52235 4.4885,7.66026 7.28169,11.84838 8.27119,12.40187 20.88657,25.31608 33.3784,34.16894 39.22359,27.79751 91.13117,32.23442 134.68926,11.51283 19.30833,-9.18542 36.78589,-23.58608 49.7464,-40.98862 1.88714,-2.53392 2.64222,-3.26996 3.2494,-3.17204 0.41935,0.0676 0.82142,0.17964 0.89349,0.24888 0.0721,0.0693 -0.70146,1.24141 -1.57577,2.46664 -19.66249,27.55447 -50.17212,47.16236 -83.4462,53.62921 -9.75109,1.89512 -13.39616,2.24049 -24.82778,2.35228 -5.83363,0.0571 -12.03849,-0.0412 -13.78858,-0.2177 z m 11.67835,-270.14298 a 136.57433,136.57433 0 0 0 -136.5742,136.57416 136.57433,136.57433 0 0 0 30.47345,85.93922 c -1.62936,-2.06901 -3.17657,-4.17272 -4.61407,-6.31581 L 255.7534,449.81338 c 37.5666,-16.43685 41.38277,-27.18463 51.3913,-37.5848 10.39333,-13.77603 12.39182,-32.08263 12.39182,-48.59654 v -58.61218 h -21.3156 v -9.38033 h 21.3156 v -21.09887 l 9.26852,0.002 v 21.09887 h 21.31561 v 9.3792 h -21.31561 c -0.4565,22.36041 -0.46604,44.6894 -0.46464,67.05284 9.2e-4,12.4218 -1.38031,26.88445 3.84968,38.4495 5.93854,13.1327 17.54981,21.50575 29.98344,27.78017 34.75107,16.98944 84.9085,18.93274 127.36907,24.09653 -14.17178,20.54072 -30.57674,35.23293 -48.00623,45.09608 A 136.57433,136.57433 0 0 0 513.53997,387.25468 136.57433,136.57433 0 0 0 376.96578,250.68052 Z m 64.57058,256.81564 a 136.57433,136.57433 0 0 1 -63.30119,16.28521 c 21.2299,0.1372 42.96282,-4.77593 63.30119,-16.28521 z m -63.30119,16.28521 c -36.39139,-0.23471 -71.27889,-15.2839 -95.06823,-37.31593 a 136.57433,136.57433 0 0 0 93.79884,37.36321 136.57433,136.57433 0 0 0 1.26939,-0.0472 z M 283.16694,486.46544 A 136.57433,136.57433 0 0 1 270.86503,473.1939 c 3.65471,4.64085 7.77753,9.08136 12.30191,13.27154 z m 97.53899,-192.7006 h 30.58527 v 17.34949 h -31.04991 z m 48.65766,7.03524 h 16.2196 l 1.38814,33.2878 h -16.67847 z m -46.33909,33.2878 h 8.80387 v 12.19467 l -0.7448,4.67403 -8.52371,0.4808 z m 20.85097,8.90994 h 0.006 27.33628 l 0.46464,15.0044 H 403.8758 Z m 31.51455,23.44393 h 12.0471 l 0.92926,22.51007 h -12.04709 z m -53.29018,18.75954 h 16.2196 v 12.19007 h -22.70952 l 0.47501,-11.43952 z m 75.22837,15.26151 c 1.4621,-0.007 2.85659,0.18474 3.4646,0.96155 1.98371,2.53491 1.00883,11.03546 1.00883,14.255 h -21.3156 c -1.83648,0.002 -6.07555,1.26328 -7.3996,-0.34934 -2.3771,-2.89599 -0.93965,-11.10465 -0.93965,-14.66083 l 21.3156,0.007 c 0.87515,0 2.4037,-0.20436 3.86582,-0.21105 z M 377.52179,251.31933 c -75.74414,0 -137.19639,60.99825 -137.19639,136.18805 1e-5,75.18983 61.45225,136.19212 137.19639,136.19212 75.74414,0 137.19205,-61.00229 137.19205,-136.19212 3e-5,-75.1898 -61.44791,-136.18805 -137.19205,-136.18805 z m 0,4.38695 c 73.35578,0 132.77279,58.98217 132.77277,131.8011 0,72.81895 -59.41699,131.80521 -132.77277,131.80521 -73.35578,0 -132.7771,-58.98626 -132.7771,-131.80521 -1e-5,-72.81893 59.42131,-131.8011 132.7771,-131.8011 z M 512.5055,387.50944 A 134.98477,133.99692 0 0 1 377.52072,521.50614 134.98477,133.99692 0 0 1 242.53595,387.50944 134.98477,133.99692 0 0 1 377.52072,253.51252 134.98477,133.99692 0 0 1 512.5055,387.50944 Z" />
      <g
         id="path82920"
         transform="matrix(3.7795276,0,0,3.7795276,196.29402,166.19057)"
         style="font-size:3.52778px;font-family:Quicksand;-inkscape-font-specification:Quicksand;letter-spacing:1.32292px;display:inline;fill:#ffffff;stroke:none;stroke-width:0.165">
        <path
           style="color:#000000;-inkscape-font-specification:Quicksand;fill:#ffffff;stroke:none;-inkscape-stroke:none"
           d="m 43.686843,91.820969 q -0.04939,0 -0.08114,-0.03175 -0.03175,-0.03175 -0.03175,-0.07408 v -2.123723 l 0.0388,0.03528 -0.469194,0.313973 q -0.02822,0.02117 -0.05997,0.02117 -0.04233,0 -0.07761,-0.03528 -0.03175,-0.03528 -0.03175,-0.07761 0,-0.05644 0.05644,-0.08819 l 0.589139,-0.391584 q 0.02117,-0.01411 0.04233,-0.01764 0.0247,-0.0035 0.04233,0 0.04586,0.0035 0.07055,0.03528 0.0247,0.02822 0.0247,0.07056 v 2.257779 q 0,0.04233 -0.03175,0.07408 -0.03175,0.03175 -0.08114,0.03175 z"
           id="path83347" />
        <path
           style="color:#000000;-inkscape-font-specification:Quicksand;fill:#ffffff;stroke:none;-inkscape-stroke:none"
           d="m 43.648437,89.269531 c -0.0273,0.0046 -0.05219,0.01657 -0.07422,0.03125 l -0.589844,0.390625 0.0059,-0.002 c -0.05583,0.03141 -0.09766,0.09503 -0.09766,0.160156 0,0.04885 0.02059,0.0971 0.05273,0.132813 l 0.002,0.002 c 0.03518,0.03519 0.08558,0.06055 0.136718,0.06055 0.0395,0 0.07868,-0.01604 0.109375,-0.03906 l 0.298828,-0.199218 v 1.908203 c 0,0.04823 0.0213,0.09678 0.05469,0.130859 l -0.05859,0.05859 H 43.6875 c 0.0506,0 0.102381,-0.02035 0.138672,-0.05664 0.02213,-0.02213 0.02793,-0.05527 0.03711,-0.08594 l 0.02344,-0.02344 h -0.01367 c 0.0013,-0.0085 0.0098,-0.01485 0.0098,-0.02344 v -2.257813 c 10e-7,-0.04282 -0.01494,-0.08725 -0.04297,-0.121094 -0.02982,-0.03838 -0.07801,-0.05971 -0.125,-0.06445 -0.02194,-0.0036 -0.04342,-0.0049 -0.06445,-0.002 z m 0.03906,0.16211 0.0059,0.002 h 0.0039 c 0.0128,9.77e-4 0.0095,0.0011 0.01172,0.0039 l 0.002,0.002 0.002,0.002 c 0.003,0.0034 0.0039,0.0034 0.0039,0.01563 v 0.152344 l -0.13086,-0.119141 0.08008,-0.05273 c 0.0051,-0.0034 0.0064,-0.0036 0.0078,-0.0039 0.01,-0.0014 0.01429,-0.0018 0.01367,-0.002 z m -0.195313,0.121093 v 0.05469 l -0.396484,0.265625 -0.002,0.002 c -0.0069,0.0052 -0.0069,0.0039 -0.0098,0.0039 -0.0047,0 -0.009,1.29e-4 -0.01758,-0.0078 l -0.002,-0.002 c -0.0073,-0.0087 -0.0078,-0.01277 -0.0078,-0.01953 0,-0.01013 -0.0057,-0.0067 0.01367,-0.01758 h 0.0039 z m 0.22461,0.103516 v 2.058594 c 0,0.0076 3.91e-4,0.0074 -0.0078,0.01563 -0.006,0.006 -0.0062,0.0078 -0.02148,0.0078 -0.01525,0 -0.0174,-0.0018 -0.02344,-0.0078 -0.0082,-0.0082 -0.0078,-0.008 -0.0078,-0.01563 v -2.017578 z"
           id="path83344" />
      </g>
      <g
         id="path82922"
         transform="matrix(3.7795276,0,0,3.7795276,196.29402,166.19057)"
         style="font-size:3.52778px;font-family:Quicksand;-inkscape-font-specification:Quicksand;letter-spacing:1.32292px;display:inline;fill:#ffffff;stroke:#2a3c6d;stroke-width:0.165">
        <path
           style="color:#000000;-inkscape-font-specification:Quicksand;fill:#ffffff;stroke:none;-inkscape-stroke:none"
           d="m 46.494954,89.312717 q 0.208139,0 0.359834,0.07408 0.155222,0.07408 0.254,0.201084 0.09878,0.123472 0.148167,0.282222 0.04939,0.15875 0.04939,0.324556 0,0.169333 -0.04586,0.363361 -0.04233,0.1905 -0.130528,0.388056 -0.08467,0.194028 -0.215195,0.370417 -0.127,0.176389 -0.299861,0.3175 -0.172861,0.141111 -0.384528,0.218723 -0.02822,0.0071 -0.04586,0.0071 -0.04233,0 -0.07761,-0.03175 -0.03175,-0.02822 -0.03175,-0.07761 0,-0.03528 0.02117,-0.05997 0.02117,-0.02822 0.0635,-0.04233 0.201084,-0.08467 0.388056,-0.250472 0.186972,-0.169333 0.321028,-0.388056 0.137584,-0.22225 0.183445,-0.458611 l 0.07408,-0.04586 q -0.05997,0.112889 -0.162278,0.204611 -0.102305,0.09172 -0.232833,0.144639 -0.127,0.04939 -0.278695,0.04939 -0.225778,0 -0.391584,-0.109361 -0.162277,-0.112889 -0.250472,-0.296334 -0.08819,-0.183444 -0.08819,-0.395111 0,-0.208139 0.09878,-0.388056 0.102306,-0.179917 0.275167,-0.289278 0.176389,-0.112889 0.398639,-0.112889 z m 0.0071,0.204611 q -0.165806,0 -0.292806,0.07408 -0.127,0.07408 -0.201083,0.208139 -0.07056,0.130528 -0.07056,0.303389 0,0.155222 0.05997,0.292805 0.0635,0.137584 0.186973,0.222251 0.123472,0.08114 0.299861,0.08114 0.1905,0 0.324556,-0.08114 0.134055,-0.08467 0.208139,-0.222251 0.07408,-0.137583 0.07408,-0.303389 0,-0.151694 -0.07055,-0.282222 -0.07056,-0.130528 -0.201084,-0.211667 -0.130528,-0.08114 -0.3175,-0.08114 z"
           id="path82955" />
        <path
           style="color:#000000;-inkscape-font-specification:Quicksand;fill:#ffffff;stroke:none;-inkscape-stroke:none"
           d="m 46.390625,89.230469 0.0059,0.02734 c -0.121883,0.0145 -0.24183,0.03243 -0.34375,0.09766 -0.1263,0.0799 -0.228211,0.187302 -0.302734,0.318359 l -0.002,0.002 c -0.07231,0.131709 -0.107422,0.275924 -0.107422,0.427735 0,0.152569 0.03154,0.296224 0.0957,0.429687 0.0645,0.134149 0.157714,0.244904 0.277344,0.328125 l 0.002,0.002 c 0.124905,0.08238 0.273661,0.123047 0.4375,0.123047 0.110084,0 0.213586,-0.01774 0.308594,-0.05469 0.02539,-0.01029 0.04431,-0.0306 0.06836,-0.04297 -0.0138,0.02563 -0.0155,0.05267 -0.03125,0.07813 -0.0854,0.139333 -0.187821,0.26153 -0.306641,0.36914 -0.118879,0.105419 -0.2405,0.183807 -0.365234,0.236329 l 0.0059,-0.002 c -0.03996,0.01332 -0.07557,0.03566 -0.101562,0.07031 -0.02492,0.03084 -0.03906,0.07079 -0.03906,0.109375 1e-6,0.04976 0.02083,0.103934 0.05859,0.138672 4.54e-4,4.08e-4 0.0015,-4.05e-4 0.002,0 4.53e-4,4.12e-4 -4.57e-4,0.0015 0,0.002 0.03551,0.03117 0.08288,0.05078 0.13086,0.05078 0.02283,0 0.04365,-0.0021 0.06641,-0.0078 l 0.0039,-0.002 0.0039,-0.002 c 0.149469,-0.05481 0.287877,-0.132601 0.410157,-0.232421 0.120618,-0.09846 0.225511,-0.208501 0.314453,-0.332032 h -0.002 c 0.0902,-0.1219 0.165715,-0.250127 0.224609,-0.384765 v -0.002 c 0.06042,-0.135627 0.107305,-0.269972 0.136719,-0.402344 h -0.002 c 0.03181,-0.13458 0.04883,-0.260523 0.04883,-0.38086 0,-0.118728 -0.01739,-0.235996 -0.05273,-0.349609 -0.03576,-0.114937 -0.08967,-0.218048 -0.162109,-0.308594 -0.07394,-0.09506 -0.169322,-0.170259 -0.283203,-0.224609 -0.114499,-0.05591 -0.247937,-0.08203 -0.396484,-0.08203 z m 0.103516,0.164062 c 0.128971,0 0.236458,0.02355 0.324218,0.06641 0.09308,0.04442 0.166842,0.10346 0.22461,0.177735 h 0.002 c 0.05927,0.07408 0.10272,0.15913 0.132812,0.255859 0.03051,0.09805 0.04687,0.198436 0.04687,0.300781 0,0.05033 -0.01489,0.109472 -0.02148,0.164063 l -0.111328,0.07031 c 0.05402,-0.102499 0.08203,-0.217203 0.08203,-0.33789 0,-0.113919 -0.02669,-0.221534 -0.08008,-0.320313 -0.05376,-0.09945 -0.132268,-0.181141 -0.230469,-0.242187 -0.102018,-0.06342 -0.224746,-0.09375 -0.361328,-0.09375 -0.122824,0 -0.23582,0.02672 -0.333984,0.08398 -0.09734,0.05678 -0.176492,0.139025 -0.232422,0.240235 -0.05429,0.10042 -0.08008,0.217284 -0.08008,0.34375 0,0.114105 0.02188,0.222079 0.06641,0.324218 v 0.002 c 0.04816,0.10435 0.122732,0.191359 0.216797,0.25586 v 0.002 c 0.09738,0.064 0.21546,0.09375 0.345703,0.09375 0.13281,0 0.25018,-0.0302 0.351562,-0.08789 -0.04353,0.03036 -0.08359,0.06324 -0.134765,0.08398 -0.07433,0.0289 -0.155871,0.04492 -0.248047,0.04492 -0.137198,0 -0.249533,-0.03423 -0.345703,-0.09766 -0.09612,-0.06717 -0.169788,-0.151752 -0.222656,-0.261718 -0.05342,-0.111129 -0.08008,-0.229722 -0.08008,-0.359375 1e-6,-0.125048 0.02913,-0.239979 0.08789,-0.347657 v -0.002 c 0.0618,-0.108222 0.144276,-0.192161 0.248047,-0.257812 0.104342,-0.06678 0.219317,-0.101563 0.353516,-0.101563 z m 0.0078,0.205078 c 0.112716,0 0.20142,0.02359 0.273438,0.06836 0.07583,0.04714 0.131554,0.107051 0.171875,0.18164 0.04068,0.07526 0.06055,0.153848 0.06055,0.242188 0,0.09825 -0.01967,0.186083 -0.0625,0.265625 -0.04266,0.07922 -0.102208,0.14024 -0.179687,0.189453 -0.07456,0.04513 -0.165963,0.07031 -0.28125,0.07031 -0.104942,0 -0.18666,-0.02417 -0.253906,-0.06836 -0.06948,-0.04796 -0.121959,-0.107625 -0.158203,-0.185547 v -0.002 c -0.03493,-0.08078 -0.05273,-0.165626 -0.05273,-0.257812 0,-0.103289 0.02129,-0.190391 0.06055,-0.263672 v -0.002 c 0.04275,-0.07686 0.09835,-0.134031 0.169922,-0.175782 0.07117,-0.04151 0.153703,-0.0625 0.251953,-0.0625 z m 0.449219,0.982422 c -0.0018,0.0078 -0.0058,0.01569 -0.0078,0.02344 -0.01316,0.01381 -0.02041,0.02975 -0.03516,0.04297 -0.01276,0.01144 -0.0295,0.01693 -0.04297,0.02734 0.03632,-0.02417 0.0554,-0.06386 0.08594,-0.09375 z m 0.21289,0.0059 c -0.02676,0.106447 -0.05976,0.213089 -0.109375,0.324218 -0.0539,0.123508 -0.123544,0.242647 -0.207031,0.355469 -0.08039,0.111655 -0.175293,0.213051 -0.285156,0.302734 -0.107759,0.08797 -0.22727,0.156442 -0.359375,0.205079 -5.42e-4,1.99e-4 -0.0014,-1.99e-4 -0.002,0 -0.007,0.0012 -0.01714,0.002 -0.01758,0.002 -0.0076,0 -0.01016,4.26e-4 -0.02148,-0.0098 v -0.002 c -0.0033,-0.0029 -0.0039,-3.77e-4 -0.0039,-0.01563 0,-0.007 -0.0015,-0.0041 0,-0.0059 l 0.002,-0.002 0.002,-0.002 c 0.0022,-0.003 0.007,-0.0082 0.02344,-0.01367 l 0.0039,-0.002 h 0.002 c 0.143378,-0.06037 0.281693,-0.149974 0.41211,-0.265625 0.130476,-0.118167 0.242593,-0.253952 0.335937,-0.40625 0.07205,-0.116396 0.107913,-0.239911 0.144531,-0.363281 0.02863,-0.03266 0.05744,-0.06552 0.08008,-0.101562 z"
           id="path82957" />
      </g>
      <g
         id="path82924"
         transform="matrix(3.7795276,0,0,3.7795276,196.29402,166.19057)"
         style="font-size:3.52778px;font-family:Quicksand;-inkscape-font-specification:Quicksand;letter-spacing:1.32292px;display:inline;fill:#ffffff;stroke:#2a3c6d;stroke-width:0.165">
        <path
           style="color:#000000;-inkscape-font-specification:Quicksand;fill:#ffffff;stroke:none;-inkscape-stroke:none"
           d="m 49.821649,91.856246 q -0.204611,0 -0.359834,-0.07408 -0.151694,-0.07408 -0.254,-0.197556 -0.09878,-0.127 -0.148167,-0.28575 -0.04586,-0.15875 -0.04586,-0.324556 0,-0.169333 0.04233,-0.363361 0.04233,-0.197556 0.130527,-0.398639 0.08819,-0.201084 0.215195,-0.381 0.130528,-0.179917 0.299861,-0.321028 0.172862,-0.144639 0.388056,-0.225778 0.0247,-0.0071 0.04233,-0.0071 0.04586,0 0.07761,0.02469 0.03528,0.02469 0.03528,0.08467 0,0.03528 -0.02469,0.0635 -0.02117,0.0247 -0.05997,0.03881 -0.148167,0.0635 -0.292806,0.179917 -0.144639,0.116417 -0.268111,0.268111 -0.123473,0.151695 -0.211667,0.328084 -0.08467,0.172861 -0.119945,0.352778 l -0.07761,0.04586 q 0.0635,-0.116417 0.162278,-0.204611 0.102306,-0.09172 0.232834,-0.144639 0.130527,-0.05644 0.282222,-0.05644 0.15875,0 0.292806,0.06703 0.134055,0.06703 0.229305,0.183444 0.09878,0.112889 0.151695,0.257528 0.05644,0.144639 0.05644,0.299862 0,0.208139 -0.102305,0.388056 -0.09878,0.179916 -0.275167,0.292805 -0.172861,0.109361 -0.398639,0.109361 z m -0.0035,-0.204611 q 0.162278,0 0.289278,-0.07408 0.127,-0.07408 0.197556,-0.204611 0.07408,-0.134056 0.07408,-0.306917 0,-0.15875 -0.0635,-0.292806 -0.05997,-0.137583 -0.183445,-0.22225 -0.119944,-0.08819 -0.299861,-0.08819 -0.186972,0 -0.324556,0.08467 -0.134055,0.08467 -0.208139,0.225778 -0.07055,0.137583 -0.07055,0.303389 0,0.148167 0.07055,0.282222 0.07056,0.130528 0.201084,0.211667 0.134056,0.08114 0.3175,0.08114 z"
           id="path82961" />
        <path
           style="color:#000000;-inkscape-font-specification:Quicksand;fill:#ffffff;stroke:none;-inkscape-stroke:none"
           d="m 50.132812,89.195312 c -0.02283,0 -0.04493,0.0036 -0.06641,0.0098 l -0.002,0.002 h -0.0039 c -0.151781,0.05723 -0.289769,0.137869 -0.41211,0.240235 -0.118126,0.09844 -0.221543,0.210565 -0.3125,0.335937 h -0.002 c -0.08783,0.124424 -0.161647,0.257376 -0.222656,0.396484 -0.06084,0.138711 -0.107241,0.276488 -0.136719,0.414063 -0.02929,0.134235 -0.04297,0.261096 -0.04297,0.380859 0,0.118144 0.01613,0.234466 0.04883,0.347657 v 0.002 c 0.03571,0.114772 0.09012,0.21799 0.162109,0.310547 v 0.002 h 0.002 c 0.07581,0.0915 0.170452,0.164641 0.28125,0.21875 v 0.002 c 0.116199,0.05546 0.250121,0.08203 0.396485,0.08203 h 0.08789 l -0.002,-0.02344 c 0.127425,-0.01272 0.251581,-0.03388 0.355469,-0.09961 h 0.002 c 0.128462,-0.08222 0.230414,-0.190543 0.302734,-0.322265 h -0.002 c 0.07496,-0.131828 0.113281,-0.275459 0.113281,-0.427735 0,-0.112831 -0.01976,-0.222938 -0.06055,-0.328125 v -0.002 c -0.03825,-0.103978 -0.0947,-0.197292 -0.166016,-0.279297 l -0.002,-0.002 c -0.07026,-0.08527 -0.155273,-0.153806 -0.253906,-0.203125 -0.101022,-0.05051 -0.212634,-0.07617 -0.330079,-0.07617 -0.111361,0 -0.216748,0.02025 -0.314453,0.0625 -0.032,0.01304 -0.05609,0.03835 -0.08594,0.05469 0.05509,-0.108388 0.121149,-0.211174 0.197265,-0.304688 0.07888,-0.09691 0.164136,-0.182033 0.25586,-0.255859 0.09018,-0.07258 0.179823,-0.127122 0.269531,-0.166016 l 0.0039,-0.002 c 0.03429,-0.01307 0.06555,-0.0322 0.08984,-0.06055 0.02768,-0.03164 0.04492,-0.07442 0.04492,-0.117187 0,-0.0553 -0.02074,-0.11565 -0.06836,-0.150391 -5.07e-4,-3.94e-4 -0.0014,3.88e-4 -0.002,0 -0.03613,-0.02748 -0.08025,-0.04102 -0.125,-0.04102 z m 0,0.164063 c 0.01577,0 0.01942,0.0032 0.02539,0.0078 l 0.002,0.002 h 0.002 c -0.0022,-0.0015 0,-0.0062 0,0.01758 0,0.0043 0.0013,0.0038 -0.0039,0.0098 -0.003,0.0035 -0.0095,0.0099 -0.02539,0.01563 h -0.002 l -0.0039,0.002 c -0.106622,0.0457 -0.209109,0.109762 -0.310547,0.191407 -0.101128,0.0814 -0.195502,0.173949 -0.28125,0.279297 -0.08613,0.105813 -0.15925,0.220844 -0.220703,0.34375 -0.04136,0.08443 -0.06316,0.172366 -0.08789,0.259765 -0.02561,0.02998 -0.05298,0.0584 -0.07422,0.0918 0.02681,-0.110198 0.05984,-0.221058 0.109375,-0.333984 0.05658,-0.129004 0.125524,-0.251724 0.207031,-0.367188 0.08308,-0.114517 0.177506,-0.214979 0.285156,-0.304687 0.108142,-0.09049 0.230091,-0.161935 0.365235,-0.212891 0.006,-0.0013 0.0132,-0.002 0.01367,-0.002 z m -0.265625,0.980469 c 0.09422,0 0.17814,0.01973 0.25586,0.05859 0.07927,0.03964 0.146723,0.09318 0.203125,0.16211 v 0.002 h 0.002 c 0.05916,0.06761 0.102801,0.145048 0.134766,0.232422 h 0.002 v 0.002 c 0.03399,0.08711 0.05078,0.176049 0.05078,0.269531 0,0.125243 -0.03035,0.239595 -0.0918,0.347656 -0.05939,0.108166 -0.141327,0.195371 -0.248047,0.263672 -0.101526,0.06423 -0.216317,0.0957 -0.353515,0.0957 -0.126451,0 -0.233454,-0.02309 -0.324219,-0.06641 v 0.002 c -0.09146,-0.04466 -0.165968,-0.104601 -0.226563,-0.177734 -0.05856,-0.07579 -0.102949,-0.160539 -0.132812,-0.255859 v -0.002 c -0.02809,-0.09787 -0.04297,-0.196552 -0.04297,-0.298828 0,-0.05268 0.0129,-0.114629 0.01953,-0.171875 l 0.111328,-0.06445 c -0.05259,0.103254 -0.08008,0.216318 -0.08008,0.337891 0,0.111872 0.02721,0.219857 0.08008,0.320312 v 0.002 c 0.05376,0.09945 0.132268,0.181142 0.230469,0.242188 0.103632,0.06273 0.226869,0.09375 0.361328,0.09375 h 0.06445 l 0.0039,-0.01758 c 0.09276,-0.0093 0.184096,-0.02308 0.261718,-0.06836 0.09714,-0.05666 0.174737,-0.136835 0.228516,-0.236328 0.05665,-0.102509 0.08398,-0.218677 0.08398,-0.345703 0,-0.116168 -0.02313,-0.225878 -0.07031,-0.326172 v -0.002 c -0.04544,-0.103551 -0.116183,-0.189653 -0.208984,-0.253906 -0.09582,-0.07045 -0.216186,-0.103516 -0.34961,-0.103516 -0.12769,0 -0.240759,0.0334 -0.341797,0.08984 0.04113,-0.02779 0.07911,-0.06068 0.126953,-0.08008 0.07633,-0.03301 0.159102,-0.05078 0.25,-0.05078 z M 49.443359,90.5 c -0.03136,0.02176 -0.04929,0.05567 -0.07617,0.08203 0.0013,-0.0053 0.0045,-0.01033 0.0059,-0.01563 0.01311,-0.01381 0.02075,-0.03206 0.03516,-0.04492 0.01021,-0.0092 0.0245,-0.01299 0.03516,-0.02148 z m 0.388672,0.04492 c 0.106465,0 0.187852,0.02513 0.251953,0.07227 v 0.002 h 0.002 c 0.07026,0.04818 0.120128,0.109107 0.154297,0.1875 v 0.002 c 0.03694,0.07798 0.05664,0.162979 0.05664,0.257812 0,0.103456 -0.02233,0.191347 -0.06445,0.267578 -0.0403,0.07455 -0.09382,0.129764 -0.166016,0.171875 -0.07146,0.04168 -0.152415,0.0625 -0.248047,0.0625 -0.109396,0 -0.198638,-0.02349 -0.273437,-0.06836 -0.07583,-0.04714 -0.131554,-0.105098 -0.171875,-0.179688 -0.0412,-0.07828 -0.0625,-0.158456 -0.0625,-0.24414 0,-0.09815 0.02217,-0.184377 0.0625,-0.263672 v -0.002 c 0.04296,-0.0813 0.100483,-0.144567 0.177734,-0.19336 0.07752,-0.0477 0.169056,-0.07227 0.28125,-0.07227 z"
           id="path82963" />
      </g>
      <g
         id="path82926"
         transform="matrix(3.7795276,0,0,3.7795276,196.29402,166.19057)"
         style="font-size:3.52778px;font-family:Quicksand;-inkscape-font-specification:Quicksand;letter-spacing:1.32292px;display:inline;fill:#ffffff;stroke:#2a3c6d;stroke-width:0.165">
        <path
           style="color:#000000;-inkscape-font-specification:Quicksand;fill:#ffffff;stroke:none;-inkscape-stroke:none"
           d="m 52.809678,91.820969 q -0.04939,0 -0.08114,-0.03175 -0.03175,-0.03175 -0.03175,-0.07408 v -2.123723 l 0.03881,0.03528 -0.469195,0.313973 q -0.02822,0.02117 -0.05997,0.02117 -0.04233,0 -0.07761,-0.03528 -0.03175,-0.03528 -0.03175,-0.07761 0,-0.05644 0.05645,-0.08819 l 0.589139,-0.391584 q 0.02117,-0.01411 0.04233,-0.01764 0.02469,-0.0035 0.04233,0 0.04586,0.0035 0.07055,0.03528 0.0247,0.02822 0.0247,0.07056 v 2.257779 q 0,0.04233 -0.03175,0.07408 -0.03175,0.03175 -0.08114,0.03175 z"
           id="path82967" />
        <path
           style="color:#000000;-inkscape-font-specification:Quicksand;fill:#ffffff;stroke:none;-inkscape-stroke:none"
           d="m 52.771484,89.269531 c -0.0273,0.0046 -0.05219,0.01657 -0.07422,0.03125 l -0.589844,0.390625 0.0059,-0.002 c -0.05584,0.03141 -0.09961,0.09502 -0.09961,0.160156 0,0.04885 0.02255,0.0971 0.05469,0.132813 l 0.002,0.002 c 0.03519,0.03519 0.08558,0.06055 0.136719,0.06055 0.0395,0 0.07868,-0.01604 0.109375,-0.03906 l 0.298828,-0.199218 v 1.908203 c 0,0.04885 0.02056,0.09868 0.05469,0.132812 0.01762,0.01762 0.04514,0.01792 0.06836,0.02734 l 0.0078,0.0293 h 0.06445 c 0.0506,0 0.102381,-0.02035 0.138672,-0.05664 0.03413,-0.03413 0.05664,-0.08397 0.05664,-0.132812 v -2.257813 c 0,-0.04366 -0.01775,-0.08899 -0.04687,-0.123047 -0.02998,-0.03628 -0.07557,-0.05791 -0.121093,-0.0625 -0.02193,-0.0036 -0.04342,-0.0049 -0.06445,-0.002 z m 0.03906,0.16211 0.0059,0.002 h 0.0039 c 0.0128,9.77e-4 0.0095,0.0011 0.01172,0.0039 l 0.002,0.002 0.002,0.002 c 0.003,0.0034 0.0039,0.0034 0.0039,0.01563 v 0.152344 l -0.13086,-0.119141 0.08008,-0.05273 c 0.0051,-0.0034 0.0064,-0.0036 0.0078,-0.0039 0.01,-0.0014 0.01427,-0.0018 0.01367,-0.002 z m -0.195313,0.121093 v 0.05469 l -0.396484,0.265625 -0.002,0.002 c -0.0069,0.0052 -0.0069,0.0039 -0.0098,0.0039 -0.0047,0 -0.009,1.29e-4 -0.01758,-0.0078 l -0.002,-0.002 c -0.0073,-0.0087 -0.0078,-0.01277 -0.0078,-0.01953 0,-0.01012 -0.0058,-0.0067 0.01367,-0.01758 h 0.0039 z m 0.22461,0.103516 v 2.058594 c 0,0.0076 3.91e-4,0.0074 -0.0078,0.01563 -0.006,0.006 -0.0062,0.0078 -0.02148,0.0078 -0.01525,0 -0.0174,-0.0018 -0.02344,-0.0078 -0.0082,-0.0082 -0.0078,-0.008 -0.0078,-0.01563 v -2.017578 z"
           id="path82969" />
      </g>
      <text
         xml:space="preserve"
         style="font-style:normal;font-variant:normal;font-weight:normal;font-stretch:normal;font-size:96px;line-height:1.25;font-family:'Bebas Neue';-inkscape-font-specification:'Bebas Neue';text-align:end;letter-spacing:0px;text-anchor:end;fill:#2c3c6c;fill-opacity:1"
         x="777.39343"
         y="354.09601"
         id="text3352"><tspan
           sodipodi:role="line"
           id="tspan3350"
           x="777.39343"
           y="354.09601">BOLETIM</tspan></text>
      <text
         xml:space="preserve"
         style="font-style:normal;font-variant:normal;font-weight:normal;font-stretch:normal;font-size:192px;line-height:1.25;font-family:'Bebas Neue';-inkscape-font-specification:'Bebas Neue';text-align:end;letter-spacing:8px;text-anchor:end;fill:#2c3c6c;fill-opacity:1"
         x="776.28937"
         y="502.17111"
         id="text3832"><tspan
           sodipodi:role="line"
           id="tspan3830"
           x="784.28937"
           y="502.17111">IPJG</tspan></text>
    </g>
  </g>
</svg>
